# xmcd
# 
# Track frame offsets:
#     150
#     15869
#     32611
#     46190
#     60370
#     74863
#     89700
#     102257
#     118162
#     130665
#     146137
#     161892
#     176859
# 
# Disc length: 2572
# 
# Revision: 2
# Processed by: cddbd v1.5.2PL0 Copyright (c) Steve Scherf et al.
# Submitted via: fre:ac v1.0.31
# 
DISCID=b90a0a0d
DTITLE=Carly Pearce - Every Little Thing
DYEAR=2017
DGENRE=Country
TTITLE0=Hide The Wine
TTITLE1=Careless
TTITLE2=Every Little Thing
TTITLE3=Everybody Gonna Talk
TTITLE4=Catch Fire
TTITLE5=If My Name Was Whiskey
TTITLE6=Color
TTITLE7=I Need A Ride Home
TTITLE8=Doin' It Right
TTITLE9=Feel Somethin'
TTITLE10=You Know Where To Find Me
TTITLE11=Honeysuckle
TTITLE12=Dare Ya
EXTD=
EXTT0=
EXTT1=
EXTT2=
EXTT3=
EXTT4=
EXTT5=
EXTT6=
EXTT7=
EXTT8=
EXTT9=
EXTT10=
EXTT11=
EXTT12=
PLAYORDER=
